<svg width="2000" height="400" viewBox="0 0 2000 400" fill="none" xmlns="http://www.w3.org/2000/svg">
<rect width="2000" height="400" fill="#0A0A0A"/>
<path d="M575.133 210.534V108.133C575.133 95.686 580.078 83.7484 588.88 74.9467C597.681 66.1449 609.619 61.2002 622.067 61.2002C634.514 61.2002 646.452 66.1449 655.254 74.9467C664.055 83.7484 669 95.686 669 108.133M669 108.133C669 95.686 673.945 83.7484 682.746 74.9467C691.548 66.1449 703.486 61.2002 715.933 61.2002C728.381 61.2002 740.318 66.1449 749.12 74.9467C757.922 83.7484 762.867 95.686 762.867 108.133V210.534M669 108.133V210.534" stroke="#FAFAFA" stroke-width="25.6" stroke-linecap="round" stroke-linejoin="round"/>
<path d="M622.067 106V212.667C622.067 225.114 627.011 237.052 635.813 245.854C644.615 254.655 656.552 259.6 669 259.6C681.447 259.6 693.385 254.655 702.187 245.854C710.989 237.052 715.933 225.114 715.933 212.667V106" stroke="#D9DDFF" stroke-width="25.6" stroke-linecap="round" stroke-linejoin="round"/>
<path d="M1354.92 236.92C1345.53 236.92 1337.16 234.947 1329.8 231C1322.44 227.053 1316.63 221.667 1312.36 214.84C1308.2 207.907 1306.12 200.067 1306.12 191.32V115.8H1330.92V189.72C1330.92 194.413 1331.93 198.68 1333.96 202.52C1336.09 206.253 1338.97 209.187 1342.6 211.32C1346.23 213.453 1350.33 214.52 1354.92 214.52C1359.61 214.52 1363.72 213.453 1367.24 211.32C1370.87 209.187 1373.69 206.253 1375.72 202.52C1377.85 198.68 1378.92 194.413 1378.92 189.72V115.8H1403.72V191.32C1403.72 200.067 1401.59 207.907 1397.32 214.84C1393.16 221.667 1387.4 227.053 1380.04 231C1372.68 234.947 1364.31 236.92 1354.92 236.92ZM1423.34 235V115.8H1448.14V235H1423.34Z" fill="#D9DDFF"/>
<path d="M847.56 235V115.8H871.56L916.2 175H905L948.36 115.8H972.36V235H947.56V143.16L957.48 145.4L911.56 204.6H908.36L864.04 145.4L872.36 143.16V235H847.56ZM1034.62 236.92C1025.87 236.92 1017.98 234.947 1010.94 231C1004 226.947 998.458 221.453 994.298 214.52C990.244 207.587 988.217 199.8 988.217 191.16C988.217 182.52 990.244 174.787 994.298 167.96C998.351 161.027 1003.9 155.587 1010.94 151.64C1017.98 147.693 1025.87 145.72 1034.62 145.72C1041.12 145.72 1047.15 146.84 1052.7 149.08C1058.24 151.32 1062.99 154.467 1066.94 158.52C1070.88 162.467 1073.71 167.16 1075.42 172.6L1054.62 181.56C1053.12 177.187 1050.56 173.72 1046.94 171.16C1043.42 168.6 1039.31 167.32 1034.62 167.32C1030.46 167.32 1026.72 168.333 1023.42 170.36C1020.22 172.387 1017.66 175.213 1015.74 178.84C1013.92 182.467 1013.02 186.627 1013.02 191.32C1013.02 196.013 1013.92 200.173 1015.74 203.8C1017.66 207.427 1020.22 210.253 1023.42 212.28C1026.72 214.307 1030.46 215.32 1034.62 215.32C1039.42 215.32 1043.58 214.04 1047.1 211.48C1050.62 208.92 1053.12 205.453 1054.62 201.08L1075.42 210.2C1073.82 215.32 1071.04 219.907 1067.1 223.96C1063.15 228.013 1058.4 231.213 1052.86 233.56C1047.31 235.8 1041.23 236.92 1034.62 236.92ZM1132.91 236.92C1124.27 236.92 1116.38 234.947 1109.23 231C1102.19 227.053 1096.54 221.667 1092.27 214.84C1088.11 207.907 1086.03 200.067 1086.03 191.32C1086.03 182.467 1088.11 174.627 1092.27 167.8C1096.54 160.973 1102.19 155.587 1109.23 151.64C1116.38 147.693 1124.27 145.72 1132.91 145.72C1141.55 145.72 1149.39 147.693 1156.43 151.64C1163.47 155.587 1169.07 160.973 1173.23 167.8C1177.5 174.627 1179.63 182.467 1179.63 191.32C1179.63 200.067 1177.5 207.907 1173.23 214.84C1169.07 221.667 1163.47 227.053 1156.43 231C1149.39 234.947 1141.55 236.92 1132.91 236.92ZM1132.91 215.32C1137.28 215.32 1141.07 214.307 1144.27 212.28C1147.58 210.253 1150.14 207.427 1151.95 203.8C1153.87 200.173 1154.83 196.013 1154.83 191.32C1154.83 186.627 1153.87 182.52 1151.95 179C1150.14 175.373 1147.58 172.547 1144.27 170.52C1141.07 168.387 1137.28 167.32 1132.91 167.32C1128.54 167.32 1124.7 168.387 1121.39 170.52C1118.08 172.547 1115.47 175.373 1113.55 179C1111.74 182.52 1110.83 186.627 1110.83 191.32C1110.83 196.013 1111.74 200.173 1113.55 203.8C1115.47 207.427 1118.08 210.253 1121.39 212.28C1124.7 214.307 1128.54 215.32 1132.91 215.32ZM1193.77 235V113.88H1217.77V235H1193.77ZM1235.33 235V147.64H1259.33V235H1235.33ZM1235.33 139.8V115.8H1259.33V139.8H1235.33Z" fill="#FAFAFA"/>
<path d="M217.188 340.432C215.34 340.432 213.732 340.096 212.364 339.424C210.996 338.752 209.94 337.816 209.196 336.616C208.452 335.416 208.08 334.024 208.08 332.44H211.248C211.248 333.424 211.464 334.336 211.896 335.176C212.328 335.992 212.988 336.652 213.876 337.156C214.764 337.636 215.88 337.876 217.224 337.876C218.304 337.876 219.252 337.72 220.068 337.408C220.884 337.072 221.52 336.592 221.976 335.968C222.432 335.32 222.66 334.54 222.66 333.628C222.66 332.692 222.444 331.924 222.012 331.324C221.604 330.7 221.028 330.184 220.284 329.776C219.564 329.368 218.76 329.02 217.872 328.732C216.984 328.42 216.072 328.108 215.136 327.796C213 327.052 211.428 326.152 210.42 325.096C209.436 324.016 208.944 322.672 208.944 321.064C208.944 319.768 209.256 318.616 209.88 317.608C210.528 316.6 211.44 315.808 212.616 315.232C213.816 314.656 215.232 314.368 216.864 314.368C218.472 314.368 219.864 314.668 221.04 315.268C222.24 315.868 223.176 316.696 223.848 317.752C224.52 318.784 224.856 319.984 224.856 321.352H221.688C221.688 320.512 221.496 319.756 221.112 319.084C220.728 318.412 220.164 317.872 219.42 317.464C218.7 317.056 217.776 316.852 216.648 316.852C215.76 316.852 214.956 316.996 214.236 317.284C213.54 317.548 212.988 317.968 212.58 318.544C212.196 319.12 212.004 319.864 212.004 320.776C212.004 321.544 212.16 322.18 212.472 322.684C212.784 323.188 213.252 323.632 213.876 324.016C214.5 324.376 215.256 324.724 216.144 325.06C217.056 325.396 218.088 325.768 219.24 326.176C220.464 326.608 221.556 327.124 222.516 327.724C223.5 328.3 224.268 329.032 224.82 329.92C225.372 330.808 225.648 331.948 225.648 333.34C225.648 334.54 225.336 335.692 224.712 336.796C224.088 337.876 223.152 338.752 221.904 339.424C220.656 340.096 219.084 340.432 217.188 340.432ZM241.245 340V317.284H233.721V314.8H251.793V317.284H244.269V340H241.245ZM271.891 340.432C269.419 340.432 267.247 339.892 265.375 338.812C263.527 337.708 262.075 336.184 261.019 334.24C259.987 332.272 259.471 329.992 259.471 327.4C259.471 324.832 259.987 322.576 261.019 320.632C262.075 318.664 263.527 317.128 265.375 316.024C267.247 314.92 269.419 314.368 271.891 314.368C274.387 314.368 276.559 314.92 278.407 316.024C280.279 317.128 281.731 318.664 282.763 320.632C283.795 322.576 284.311 324.832 284.311 327.4C284.311 329.992 283.795 332.272 282.763 334.24C281.731 336.184 280.279 337.708 278.407 338.812C276.559 339.892 274.387 340.432 271.891 340.432ZM271.891 337.768C273.739 337.768 275.359 337.36 276.751 336.544C278.167 335.704 279.259 334.516 280.027 332.98C280.819 331.42 281.215 329.56 281.215 327.4C281.215 325.24 280.819 323.392 280.027 321.856C279.259 320.296 278.167 319.108 276.751 318.292C275.359 317.476 273.739 317.068 271.891 317.068C270.043 317.068 268.411 317.476 266.995 318.292C265.603 319.108 264.511 320.296 263.719 321.856C262.951 323.392 262.567 325.24 262.567 327.4C262.567 329.56 262.951 331.42 263.719 332.98C264.511 334.516 265.603 335.704 266.995 336.544C268.411 337.36 270.043 337.768 271.891 337.768ZM294.738 340V314.8H303.018C305.01 314.8 306.63 315.124 307.878 315.772C309.15 316.42 310.086 317.296 310.686 318.4C311.31 319.504 311.622 320.752 311.622 322.144C311.622 323.512 311.322 324.748 310.722 325.852C310.122 326.956 309.186 327.844 307.914 328.516C306.642 329.164 305.01 329.488 303.018 329.488H297.762V340H294.738ZM297.762 326.932H302.946C304.938 326.932 306.366 326.5 307.23 325.636C308.094 324.772 308.526 323.608 308.526 322.144C308.526 320.608 308.094 319.42 307.23 318.58C306.366 317.74 304.938 317.32 302.946 317.32H297.762V326.932ZM336.524 340V314.8H345.38C347.156 314.8 348.62 315.088 349.772 315.664C350.948 316.216 351.824 316.984 352.4 317.968C352.976 318.928 353.264 320.008 353.264 321.208C353.264 322.504 352.976 323.584 352.4 324.448C351.848 325.312 351.116 325.972 350.204 326.428C349.316 326.884 348.368 327.16 347.36 327.256L347.864 326.896C348.944 326.92 349.94 327.208 350.852 327.76C351.764 328.312 352.484 329.056 353.012 329.992C353.564 330.928 353.84 331.972 353.84 333.124C353.84 334.396 353.528 335.56 352.904 336.616C352.28 337.648 351.356 338.476 350.132 339.1C348.932 339.7 347.444 340 345.668 340H336.524ZM339.548 337.48H345.344C347.048 337.48 348.368 337.084 349.304 336.292C350.264 335.476 350.744 334.348 350.744 332.908C350.744 331.492 350.252 330.364 349.268 329.524C348.308 328.66 346.976 328.228 345.272 328.228H339.548V337.48ZM339.548 325.816H345.164C346.796 325.816 348.032 325.432 348.872 324.664C349.736 323.896 350.168 322.852 350.168 321.532C350.168 320.26 349.736 319.24 348.872 318.472C348.032 317.704 346.76 317.32 345.056 317.32H339.548V325.816ZM373.329 340.432C371.601 340.432 370.029 340.084 368.613 339.388C367.197 338.692 366.069 337.636 365.229 336.22C364.413 334.78 364.005 332.944 364.005 330.712V314.8H367.029V330.748C367.029 332.38 367.293 333.712 367.821 334.744C368.373 335.776 369.129 336.532 370.089 337.012C371.049 337.492 372.153 337.732 373.401 337.732C374.673 337.732 375.777 337.492 376.713 337.012C377.649 336.532 378.381 335.776 378.909 334.744C379.437 333.712 379.701 332.38 379.701 330.748V314.8H382.725V330.712C382.725 332.944 382.305 334.78 381.465 336.22C380.625 337.636 379.497 338.692 378.081 339.388C376.665 340.084 375.081 340.432 373.329 340.432ZM393.499 340V314.8H396.523V340H393.499ZM407.519 340V314.8H410.543V337.588H422.279V340H407.519ZM432.156 340V314.8H439.896C442.848 314.8 445.284 315.316 447.204 316.348C449.124 317.356 450.54 318.808 451.452 320.704C452.388 322.576 452.856 324.832 452.856 327.472C452.856 330.064 452.388 332.296 451.452 334.168C450.54 336.04 449.124 337.48 447.204 338.488C445.284 339.496 442.848 340 439.896 340H432.156ZM435.18 337.48H439.824C442.272 337.48 444.216 337.084 445.656 336.292C447.12 335.476 448.164 334.324 448.788 332.836C449.412 331.324 449.724 329.536 449.724 327.472C449.724 325.36 449.412 323.548 448.788 322.036C448.164 320.524 447.12 319.36 445.656 318.544C444.216 317.728 442.272 317.32 439.824 317.32H435.18V337.48ZM463.298 340V314.8H466.322V340H463.298ZM477.318 340V314.8H481.314L493.662 336.22H493.77V314.8H496.794V340H492.798L480.45 318.58H480.342V340H477.318ZM518.88 340.432C516.552 340.432 514.512 339.892 512.76 338.812C511.032 337.708 509.688 336.184 508.728 334.24C507.768 332.296 507.288 330.028 507.288 327.436C507.288 324.868 507.78 322.6 508.764 320.632C509.772 318.664 511.188 317.128 513.012 316.024C514.86 314.92 517.032 314.368 519.528 314.368C522.36 314.368 524.724 315.052 526.62 316.42C528.516 317.764 529.728 319.648 530.256 322.072H526.764C526.428 320.56 525.636 319.36 524.388 318.472C523.14 317.584 521.52 317.14 519.528 317.14C517.68 317.14 516.06 317.56 514.668 318.4C513.3 319.216 512.244 320.392 511.5 321.928C510.756 323.464 510.384 325.3 510.384 327.436C510.384 329.572 510.756 331.42 511.5 332.98C512.244 334.516 513.276 335.692 514.596 336.508C515.94 337.324 517.476 337.732 519.204 337.732C521.892 337.732 523.92 336.94 525.288 335.356C526.656 333.772 527.436 331.624 527.628 328.912H520.356V326.536H530.724V340H528.024L527.7 335.104H527.592C526.968 336.256 526.224 337.228 525.36 338.02C524.52 338.812 523.572 339.412 522.516 339.82C521.46 340.228 520.248 340.432 518.88 340.432ZM556.539 340V314.8H571.875V317.284H559.563V326.14H570.039V328.588H559.563V340H556.539ZM581.669 340V314.8H589.805C591.773 314.8 593.381 315.136 594.629 315.808C595.877 316.456 596.801 317.332 597.401 318.436C598.001 319.54 598.301 320.788 598.301 322.18C598.301 323.524 597.989 324.76 597.365 325.888C596.765 327.016 595.829 327.916 594.557 328.588C593.285 329.26 591.653 329.596 589.661 329.596H584.693V340H581.669ZM594.989 340L589.445 328.732H592.829L598.553 340H594.989ZM584.693 327.22H589.589C591.509 327.22 592.913 326.752 593.801 325.816C594.713 324.88 595.169 323.68 595.169 322.216C595.169 320.728 594.725 319.552 593.837 318.688C592.973 317.8 591.545 317.356 589.553 317.356H584.693V327.22ZM620.402 340.432C617.93 340.432 615.758 339.892 613.886 338.812C612.038 337.708 610.586 336.184 609.53 334.24C608.498 332.272 607.982 329.992 607.982 327.4C607.982 324.832 608.498 322.576 609.53 320.632C610.586 318.664 612.038 317.128 613.886 316.024C615.758 314.92 617.93 314.368 620.402 314.368C622.898 314.368 625.07 314.92 626.918 316.024C628.79 317.128 630.242 318.664 631.274 320.632C632.306 322.576 632.822 324.832 632.822 327.4C632.822 329.992 632.306 332.272 631.274 334.24C630.242 336.184 628.79 337.708 626.918 338.812C625.07 339.892 622.898 340.432 620.402 340.432ZM620.402 337.768C622.25 337.768 623.87 337.36 625.262 336.544C626.678 335.704 627.77 334.516 628.538 332.98C629.33 331.42 629.726 329.56 629.726 327.4C629.726 325.24 629.33 323.392 628.538 321.856C627.77 320.296 626.678 319.108 625.262 318.292C623.87 317.476 622.25 317.068 620.402 317.068C618.554 317.068 616.922 317.476 615.506 318.292C614.114 319.108 613.022 320.296 612.23 321.856C611.462 323.392 611.078 325.24 611.078 327.4C611.078 329.56 611.462 331.42 612.23 332.98C613.022 334.516 614.114 335.704 615.506 336.544C616.922 337.36 618.554 337.768 620.402 337.768ZM643.249 340V314.8H647.497L655.813 333.484H655.921L664.201 314.8H668.413V340H665.389V319.588H665.281L657.721 336.4H653.977L646.381 319.588H646.273V340H643.249ZM702.668 340.432C700.82 340.432 699.212 340.096 697.844 339.424C696.476 338.752 695.42 337.816 694.676 336.616C693.932 335.416 693.56 334.024 693.56 332.44H696.728C696.728 333.424 696.944 334.336 697.376 335.176C697.808 335.992 698.468 336.652 699.356 337.156C700.244 337.636 701.36 337.876 702.704 337.876C703.784 337.876 704.732 337.72 705.548 337.408C706.364 337.072 707 336.592 707.456 335.968C707.912 335.32 708.14 334.54 708.14 333.628C708.14 332.692 707.924 331.924 707.492 331.324C707.084 330.7 706.508 330.184 705.764 329.776C705.044 329.368 704.24 329.02 703.352 328.732C702.464 328.42 701.552 328.108 700.616 327.796C698.48 327.052 696.908 326.152 695.9 325.096C694.916 324.016 694.424 322.672 694.424 321.064C694.424 319.768 694.736 318.616 695.36 317.608C696.008 316.6 696.92 315.808 698.096 315.232C699.296 314.656 700.712 314.368 702.344 314.368C703.952 314.368 705.344 314.668 706.52 315.268C707.72 315.868 708.656 316.696 709.328 317.752C710 318.784 710.336 319.984 710.336 321.352H707.168C707.168 320.512 706.976 319.756 706.592 319.084C706.208 318.412 705.644 317.872 704.9 317.464C704.18 317.056 703.256 316.852 702.128 316.852C701.24 316.852 700.436 316.996 699.716 317.284C699.02 317.548 698.468 317.968 698.06 318.544C697.676 319.12 697.484 319.864 697.484 320.776C697.484 321.544 697.64 322.18 697.952 322.684C698.264 323.188 698.732 323.632 699.356 324.016C699.98 324.376 700.736 324.724 701.624 325.06C702.536 325.396 703.568 325.768 704.72 326.176C705.944 326.608 707.036 327.124 707.996 327.724C708.98 328.3 709.748 329.032 710.3 329.92C710.852 330.808 711.128 331.948 711.128 333.34C711.128 334.54 710.816 335.692 710.192 336.796C709.568 337.876 708.632 338.752 707.384 339.424C706.136 340.096 704.564 340.432 702.668 340.432ZM732.794 340.432C730.322 340.432 728.186 339.892 726.386 338.812C724.586 337.708 723.194 336.184 722.21 334.24C721.25 332.272 720.77 329.992 720.77 327.4C720.77 324.808 721.25 322.54 722.21 320.596C723.194 318.628 724.586 317.104 726.386 316.024C728.186 314.92 730.322 314.368 732.794 314.368C735.698 314.368 738.05 315.052 739.85 316.42C741.65 317.788 742.802 319.72 743.306 322.216H739.958C739.574 320.656 738.794 319.408 737.618 318.472C736.442 317.536 734.834 317.068 732.794 317.068C730.994 317.068 729.422 317.488 728.078 318.328C726.734 319.144 725.69 320.332 724.946 321.892C724.226 323.428 723.866 325.264 723.866 327.4C723.866 329.536 724.226 331.384 724.946 332.944C725.69 334.48 726.734 335.668 728.078 336.508C729.422 337.324 730.994 337.732 732.794 337.732C734.834 337.732 736.454 337.276 737.654 336.364C738.854 335.428 739.646 334.204 740.03 332.692H743.306C742.802 335.116 741.65 337.012 739.85 338.38C738.05 339.748 735.698 340.432 732.794 340.432ZM753.752 340V314.8H761.888C763.856 314.8 765.464 315.136 766.712 315.808C767.96 316.456 768.884 317.332 769.484 318.436C770.084 319.54 770.384 320.788 770.384 322.18C770.384 323.524 770.072 324.76 769.448 325.888C768.848 327.016 767.912 327.916 766.64 328.588C765.368 329.26 763.736 329.596 761.744 329.596H756.776V340H753.752ZM767.072 340L761.528 328.732H764.912L770.636 340H767.072ZM756.776 327.22H761.672C763.592 327.22 764.996 326.752 765.884 325.816C766.796 324.88 767.252 323.68 767.252 322.216C767.252 320.728 766.808 319.552 765.92 318.688C765.056 317.8 763.628 317.356 761.636 317.356H756.776V327.22ZM779.093 340L787.877 314.8H792.197L800.837 340H797.633L790.073 317.428H789.965L782.261 340H779.093ZM783.341 332.476L784.205 330.028H795.617L796.481 332.476H783.341ZM814.313 340V317.284H806.789V314.8H824.861V317.284H817.337V340H814.313ZM844.563 340.432C842.091 340.432 839.955 339.892 838.155 338.812C836.355 337.708 834.963 336.184 833.979 334.24C833.019 332.272 832.539 329.992 832.539 327.4C832.539 324.808 833.019 322.54 833.979 320.596C834.963 318.628 836.355 317.104 838.155 316.024C839.955 314.92 842.091 314.368 844.563 314.368C847.467 314.368 849.819 315.052 851.619 316.42C853.419 317.788 854.571 319.72 855.075 322.216H851.727C851.343 320.656 850.563 319.408 849.387 318.472C848.211 317.536 846.603 317.068 844.563 317.068C842.763 317.068 841.191 317.488 839.847 318.328C838.503 319.144 837.459 320.332 836.715 321.892C835.995 323.428 835.635 325.264 835.635 327.4C835.635 329.536 835.995 331.384 836.715 332.944C837.459 334.48 838.503 335.668 839.847 336.508C841.191 337.324 842.763 337.732 844.563 337.732C846.603 337.732 848.223 337.276 849.423 336.364C850.623 335.428 851.415 334.204 851.799 332.692H855.075C854.571 335.116 853.419 337.012 851.619 338.38C849.819 339.748 847.467 340.432 844.563 340.432ZM881.612 340V314.8H884.636V340H881.612ZM865.52 340V314.8H868.544V340H865.52ZM867.968 328.408V325.924H882.368V328.408H867.968ZM897.083 340.18C896.507 340.18 896.015 339.988 895.607 339.604C895.223 339.196 895.031 338.716 895.031 338.164C895.031 337.588 895.223 337.108 895.607 336.724C896.015 336.34 896.507 336.148 897.083 336.148C897.635 336.148 898.103 336.34 898.487 336.724C898.871 337.108 899.063 337.588 899.063 338.164C899.063 338.716 898.871 339.196 898.487 339.604C898.103 339.988 897.635 340.18 897.083 340.18ZM924.421 340V314.8H940.009V317.284H927.445V326.068H938.929V328.516H927.445V337.516H940.009V340H924.421ZM950.43 340V314.8H953.454V337.588H965.19V340H950.43ZM975.067 340V314.8H990.655V317.284H978.091V326.068H989.575V328.516H978.091V337.516H990.655V340H975.067ZM1008.35 340L999.528 314.8H1002.8L1010.54 337.516H1010.65L1018.36 314.8H1021.45L1012.74 340H1008.35ZM1025.92 340L1034.71 314.8H1039.03L1047.67 340H1044.46L1036.9 317.428H1036.8L1029.09 340H1025.92ZM1030.17 332.476L1031.04 330.028H1042.45L1043.31 332.476H1030.17ZM1061.14 340V317.284H1053.62V314.8H1071.69V317.284H1064.17V340H1061.14ZM1081.18 340V314.8H1096.76V317.284H1084.2V326.068H1095.68V328.516H1084.2V337.516H1096.76V340H1081.18ZM1128.81 340V330.784L1120.61 314.8H1124.03L1130.47 328.012H1130.29L1136.7 314.8H1140.01L1131.84 330.784V340H1128.81ZM1159.55 340.432C1157.08 340.432 1154.91 339.892 1153.04 338.812C1151.19 337.708 1149.74 336.184 1148.68 334.24C1147.65 332.272 1147.13 329.992 1147.13 327.4C1147.13 324.832 1147.65 322.576 1148.68 320.632C1149.74 318.664 1151.19 317.128 1153.04 316.024C1154.91 314.92 1157.08 314.368 1159.55 314.368C1162.05 314.368 1164.22 314.92 1166.07 316.024C1167.94 317.128 1169.39 318.664 1170.42 320.632C1171.46 322.576 1171.97 324.832 1171.97 327.4C1171.97 329.992 1171.46 332.272 1170.42 334.24C1169.39 336.184 1167.94 337.708 1166.07 338.812C1164.22 339.892 1162.05 340.432 1159.55 340.432ZM1159.55 337.768C1161.4 337.768 1163.02 337.36 1164.41 336.544C1165.83 335.704 1166.92 334.516 1167.69 332.98C1168.48 331.42 1168.88 329.56 1168.88 327.4C1168.88 325.24 1168.48 323.392 1167.69 321.856C1166.92 320.296 1165.83 319.108 1164.41 318.292C1163.02 317.476 1161.4 317.068 1159.55 317.068C1157.7 317.068 1156.07 317.476 1154.66 318.292C1153.26 319.108 1152.17 320.296 1151.38 321.856C1150.61 323.392 1150.23 325.24 1150.23 327.4C1150.23 329.56 1150.61 331.42 1151.38 332.98C1152.17 334.516 1153.26 335.704 1154.66 336.544C1156.07 337.36 1157.7 337.768 1159.55 337.768ZM1191.54 340.432C1189.81 340.432 1188.24 340.084 1186.83 339.388C1185.41 338.692 1184.28 337.636 1183.44 336.22C1182.63 334.78 1182.22 332.944 1182.22 330.712V314.8H1185.24V330.748C1185.24 332.38 1185.51 333.712 1186.03 334.744C1186.59 335.776 1187.34 336.532 1188.3 337.012C1189.26 337.492 1190.37 337.732 1191.61 337.732C1192.89 337.732 1193.99 337.492 1194.93 337.012C1195.86 336.532 1196.59 335.776 1197.12 334.744C1197.65 333.712 1197.91 332.38 1197.91 330.748V314.8H1200.94V330.712C1200.94 332.944 1200.52 334.78 1199.68 336.22C1198.84 337.636 1197.71 338.692 1196.29 339.388C1194.88 340.084 1193.29 340.432 1191.54 340.432ZM1211.71 340V314.8H1219.85C1221.82 314.8 1223.42 315.136 1224.67 315.808C1225.92 316.456 1226.84 317.332 1227.44 318.436C1228.04 319.54 1228.34 320.788 1228.34 322.18C1228.34 323.524 1228.03 324.76 1227.41 325.888C1226.81 327.016 1225.87 327.916 1224.6 328.588C1223.33 329.26 1221.7 329.596 1219.7 329.596H1214.74V340H1211.71ZM1225.03 340L1219.49 328.732H1222.87L1228.6 340H1225.03ZM1214.74 327.22H1219.63C1221.55 327.22 1222.96 326.752 1223.84 325.816C1224.76 324.88 1225.21 323.68 1225.21 322.216C1225.21 320.728 1224.77 319.552 1223.88 318.688C1223.02 317.8 1221.59 317.356 1219.6 317.356H1214.74V327.22ZM1262.64 340.432C1260.91 340.432 1259.34 340.084 1257.93 339.388C1256.51 338.692 1255.38 337.636 1254.54 336.22C1253.73 334.78 1253.32 332.944 1253.32 330.712V314.8H1256.34V330.748C1256.34 332.38 1256.61 333.712 1257.13 334.744C1257.69 335.776 1258.44 336.532 1259.4 337.012C1260.36 337.492 1261.47 337.732 1262.71 337.732C1263.99 337.732 1265.09 337.492 1266.03 337.012C1266.96 336.532 1267.69 335.776 1268.22 334.744C1268.75 333.712 1269.01 332.38 1269.01 330.748V314.8H1272.04V330.712C1272.04 332.944 1271.62 334.78 1270.78 336.22C1269.94 337.636 1268.81 338.692 1267.39 339.388C1265.98 340.084 1264.39 340.432 1262.64 340.432ZM1282.81 340V314.8H1285.84V340H1282.81ZM1316.91 340L1310.29 314.8H1313.42L1319.11 337.408H1319.22L1325.73 314.8H1328.9L1335.49 337.444H1335.6L1341.25 314.8H1344.38L1337.65 340H1333.29L1327.32 319.876H1327.21L1321.27 340H1316.91ZM1353.81 340V314.8H1356.83V340H1353.81ZM1373.87 340V317.284H1366.35V314.8H1384.42V317.284H1376.9V340H1373.87ZM1410 340V314.8H1413.02V340H1410ZM1393.9 340V314.8H1396.93V340H1393.9ZM1396.35 328.408V325.924H1410.75V328.408H1396.35ZM1438.96 340V314.8H1443.21L1451.53 333.484H1451.63L1459.91 314.8H1464.13V340H1461.1V319.588H1460.99L1453.43 336.4H1449.69L1442.09 319.588H1441.99V340H1438.96ZM1475.09 340V314.8H1478.12V340H1475.09ZM1500.63 340.432C1498.16 340.432 1496.03 339.892 1494.23 338.812C1492.43 337.708 1491.03 336.184 1490.05 334.24C1489.09 332.272 1488.61 329.992 1488.61 327.4C1488.61 324.808 1489.09 322.54 1490.05 320.596C1491.03 318.628 1492.43 317.104 1494.23 316.024C1496.03 314.92 1498.16 314.368 1500.63 314.368C1503.54 314.368 1505.89 315.052 1507.69 316.42C1509.49 317.788 1510.64 319.72 1511.15 322.216H1507.8C1507.41 320.656 1506.63 319.408 1505.46 318.472C1504.28 317.536 1502.67 317.068 1500.63 317.068C1498.83 317.068 1497.26 317.488 1495.92 318.328C1494.57 319.144 1493.53 320.332 1492.79 321.892C1492.07 323.428 1491.71 325.264 1491.71 327.4C1491.71 329.536 1492.07 331.384 1492.79 332.944C1493.53 334.48 1494.57 335.668 1495.92 336.508C1497.26 337.324 1498.83 337.732 1500.63 337.732C1502.67 337.732 1504.29 337.276 1505.49 336.364C1506.69 335.428 1507.49 334.204 1507.87 332.692H1511.15C1510.64 335.116 1509.49 337.012 1507.69 338.38C1505.89 339.748 1503.54 340.432 1500.63 340.432ZM1521.59 340V314.8H1529.73C1531.7 314.8 1533.3 315.136 1534.55 315.808C1535.8 316.456 1536.72 317.332 1537.32 318.436C1537.92 319.54 1538.22 320.788 1538.22 322.18C1538.22 323.524 1537.91 324.76 1537.29 325.888C1536.69 327.016 1535.75 327.916 1534.48 328.588C1533.21 329.26 1531.58 329.596 1529.58 329.596H1524.62V340H1521.59ZM1534.91 340L1529.37 328.732H1532.75L1538.48 340H1534.91ZM1524.62 327.22H1529.51C1531.43 327.22 1532.84 326.752 1533.72 325.816C1534.64 324.88 1535.09 323.68 1535.09 322.216C1535.09 320.728 1534.65 319.552 1533.76 318.688C1532.9 317.8 1531.47 317.356 1529.48 317.356H1524.62V327.22ZM1560.33 340.432C1557.85 340.432 1555.68 339.892 1553.81 338.812C1551.96 337.708 1550.51 336.184 1549.45 334.24C1548.42 332.272 1547.91 329.992 1547.91 327.4C1547.91 324.832 1548.42 322.576 1549.45 320.632C1550.51 318.664 1551.96 317.128 1553.81 316.024C1555.68 314.92 1557.85 314.368 1560.33 314.368C1562.82 314.368 1564.99 314.92 1566.84 316.024C1568.71 317.128 1570.17 318.664 1571.2 320.632C1572.23 322.576 1572.75 324.832 1572.75 327.4C1572.75 329.992 1572.23 332.272 1571.2 334.24C1570.17 336.184 1568.71 337.708 1566.84 338.812C1564.99 339.892 1562.82 340.432 1560.33 340.432ZM1560.33 337.768C1562.17 337.768 1563.79 337.36 1565.19 336.544C1566.6 335.704 1567.69 334.516 1568.46 332.98C1569.25 331.42 1569.65 329.56 1569.65 327.4C1569.65 325.24 1569.25 323.392 1568.46 321.856C1567.69 320.296 1566.6 319.108 1565.19 318.292C1563.79 317.476 1562.17 317.068 1560.33 317.068C1558.48 317.068 1556.85 317.476 1555.43 318.292C1554.04 319.108 1552.95 320.296 1552.15 321.856C1551.39 323.392 1551 325.24 1551 327.4C1551 329.56 1551.39 331.42 1552.15 332.98C1552.95 334.516 1554.04 335.704 1555.43 336.544C1556.85 337.36 1558.48 337.768 1560.33 337.768ZM1594.69 340.432C1592.22 340.432 1590.08 339.892 1588.28 338.812C1586.48 337.708 1585.09 336.184 1584.11 334.24C1583.15 332.272 1582.67 329.992 1582.67 327.4C1582.67 324.808 1583.15 322.54 1584.11 320.596C1585.09 318.628 1586.48 317.104 1588.28 316.024C1590.08 314.92 1592.22 314.368 1594.69 314.368C1597.6 314.368 1599.95 315.052 1601.75 316.42C1603.55 317.788 1604.7 319.72 1605.2 322.216H1601.86C1601.47 320.656 1600.69 319.408 1599.52 318.472C1598.34 317.536 1596.73 317.068 1594.69 317.068C1592.89 317.068 1591.32 317.488 1589.98 318.328C1588.63 319.144 1587.59 320.332 1586.84 321.892C1586.12 323.428 1585.76 325.264 1585.76 327.4C1585.76 329.536 1586.12 331.384 1586.84 332.944C1587.59 334.48 1588.63 335.668 1589.98 336.508C1591.32 337.324 1592.89 337.732 1594.69 337.732C1596.73 337.732 1598.35 337.276 1599.55 336.364C1600.75 335.428 1601.54 334.204 1601.93 332.692H1605.2C1604.7 335.116 1603.55 337.012 1601.75 338.38C1599.95 339.748 1597.6 340.432 1594.69 340.432ZM1615.65 340V314.8H1618.67V337.588H1630.41V340H1615.65ZM1648.34 340.432C1646.61 340.432 1645.04 340.084 1643.62 339.388C1642.21 338.692 1641.08 337.636 1640.24 336.22C1639.42 334.78 1639.02 332.944 1639.02 330.712V314.8H1642.04V330.748C1642.04 332.38 1642.3 333.712 1642.83 334.744C1643.38 335.776 1644.14 336.532 1645.1 337.012C1646.06 337.492 1647.16 337.732 1648.41 337.732C1649.68 337.732 1650.79 337.492 1651.72 337.012C1652.66 336.532 1653.39 335.776 1653.92 334.744C1654.45 333.712 1654.71 332.38 1654.71 330.748V314.8H1657.74V330.712C1657.74 332.944 1657.32 334.78 1656.48 336.22C1655.64 337.636 1654.51 338.692 1653.09 339.388C1651.68 340.084 1650.09 340.432 1648.34 340.432ZM1668.51 340V314.8H1677.37C1679.14 314.8 1680.61 315.088 1681.76 315.664C1682.93 316.216 1683.81 316.984 1684.39 317.968C1684.96 318.928 1685.25 320.008 1685.25 321.208C1685.25 322.504 1684.96 323.584 1684.39 324.448C1683.83 325.312 1683.1 325.972 1682.19 326.428C1681.3 326.884 1680.35 327.16 1679.35 327.256L1679.85 326.896C1680.93 326.92 1681.93 327.208 1682.84 327.76C1683.75 328.312 1684.47 329.056 1685 329.992C1685.55 330.928 1685.83 331.972 1685.83 333.124C1685.83 334.396 1685.51 335.56 1684.89 336.616C1684.27 337.648 1683.34 338.476 1682.12 339.1C1680.92 339.7 1679.43 340 1677.65 340H1668.51ZM1671.53 337.48H1677.33C1679.03 337.48 1680.35 337.084 1681.29 336.292C1682.25 335.476 1682.73 334.348 1682.73 332.908C1682.73 331.492 1682.24 330.364 1681.25 329.524C1680.29 328.66 1678.96 328.228 1677.26 328.228H1671.53V337.48ZM1671.53 325.816H1677.15C1678.78 325.816 1680.02 325.432 1680.86 324.664C1681.72 323.896 1682.15 322.852 1682.15 321.532C1682.15 320.26 1681.72 319.24 1680.86 318.472C1680.02 317.704 1678.75 317.32 1677.04 317.32H1671.53V325.816ZM1711.14 340V314.8H1718.88C1721.83 314.8 1724.27 315.316 1726.19 316.348C1728.11 317.356 1729.52 318.808 1730.44 320.704C1731.37 322.576 1731.84 324.832 1731.84 327.472C1731.84 330.064 1731.37 332.296 1730.44 334.168C1729.52 336.04 1728.11 337.48 1726.19 338.488C1724.27 339.496 1721.83 340 1718.88 340H1711.14ZM1714.16 337.48H1718.81C1721.26 337.48 1723.2 337.084 1724.64 336.292C1726.1 335.476 1727.15 334.324 1727.77 332.836C1728.4 331.324 1728.71 329.536 1728.71 327.472C1728.71 325.36 1728.4 323.548 1727.77 322.036C1727.15 320.524 1726.1 319.36 1724.64 318.544C1723.2 317.728 1721.26 317.32 1718.81 317.32H1714.16V337.48ZM1742.28 340V314.8H1746.28L1758.63 336.22H1758.73V314.8H1761.76V340H1757.76L1745.41 318.58H1745.31V340H1742.28ZM1771.28 340L1780.06 314.8H1784.38L1793.02 340H1789.82L1782.26 317.428H1782.15L1774.45 340H1771.28ZM1775.53 332.476L1776.39 330.028H1787.8L1788.67 332.476H1775.53Z" fill="white"/>
</svg>
