<svg width="1028" height="385" viewBox="0 0 1028 385" fill="none" xmlns="http://www.w3.org/2000/svg">
<rect width="1028" height="385" fill="white"/>
<path d="M89.1333 233.534V131.134C89.1333 118.686 94.078 106.748 102.88 97.9467C111.681 89.1449 123.619 84.2002 136.067 84.2002C148.514 84.2002 160.452 89.1449 169.254 97.9467C178.055 106.748 183 118.686 183 131.134M183 131.134C183 118.686 187.945 106.748 196.746 97.9467C205.548 89.1449 217.486 84.2002 229.933 84.2002C242.381 84.2002 254.318 89.1449 263.12 97.9467C271.922 106.748 276.867 118.686 276.867 131.134V233.534M183 131.134V233.534" stroke="#000350" stroke-width="25.6" stroke-linecap="round" stroke-linejoin="round"/>
<path d="M136.067 129V235.667C136.067 248.114 141.011 260.052 149.813 268.854C158.615 277.655 170.552 282.6 183 282.6C195.447 282.6 207.385 277.655 216.187 268.854C224.989 260.052 229.933 248.114 229.933 235.667V129" stroke="#0006B1" stroke-width="25.6" stroke-linecap="round" stroke-linejoin="round"/>
<path d="M868.92 259.92C859.533 259.92 851.16 257.947 843.8 254C836.44 250.053 830.627 244.667 826.36 237.84C822.2 230.907 820.12 223.067 820.12 214.32V138.8H844.92V212.72C844.92 217.413 845.933 221.68 847.96 225.52C850.093 229.253 852.973 232.187 856.6 234.32C860.227 236.453 864.333 237.52 868.92 237.52C873.613 237.52 877.72 236.453 881.24 234.32C884.867 232.187 887.693 229.253 889.72 225.52C891.853 221.68 892.92 217.413 892.92 212.72V138.8H917.72V214.32C917.72 223.067 915.587 230.907 911.32 237.84C907.16 244.667 901.4 250.053 894.04 254C886.68 257.947 878.307 259.92 868.92 259.92ZM937.341 258V138.8H962.141V258H937.341Z" fill="#0006B1"/>
<path d="M361.56 258V138.8H385.56L430.2 198H419L462.36 138.8H486.36V258H461.56V166.16L471.48 168.4L425.56 227.6H422.36L378.04 168.4L386.36 166.16V258H361.56ZM548.618 259.92C539.871 259.92 531.978 257.947 524.938 254C518.004 249.947 512.458 244.453 508.298 237.52C504.244 230.587 502.217 222.8 502.217 214.16C502.217 205.52 504.244 197.787 508.298 190.96C512.351 184.027 517.898 178.587 524.938 174.64C531.978 170.693 539.871 168.72 548.618 168.72C555.124 168.72 561.151 169.84 566.698 172.08C572.244 174.32 576.991 177.467 580.938 181.52C584.884 185.467 587.711 190.16 589.418 195.6L568.618 204.56C567.124 200.187 564.564 196.72 560.938 194.16C557.418 191.6 553.311 190.32 548.618 190.32C544.458 190.32 540.724 191.333 537.418 193.36C534.218 195.387 531.658 198.213 529.738 201.84C527.924 205.467 527.018 209.627 527.018 214.32C527.018 219.013 527.924 223.173 529.738 226.8C531.658 230.427 534.218 233.253 537.418 235.28C540.724 237.307 544.458 238.32 548.618 238.32C553.418 238.32 557.578 237.04 561.098 234.48C564.618 231.92 567.124 228.453 568.618 224.08L589.418 233.2C587.818 238.32 585.044 242.907 581.098 246.96C577.151 251.013 572.404 254.213 566.858 256.56C561.311 258.8 555.231 259.92 548.618 259.92ZM646.91 259.92C638.27 259.92 630.377 257.947 623.23 254C616.19 250.053 610.537 244.667 606.27 237.84C602.11 230.907 600.03 223.067 600.03 214.32C600.03 205.467 602.11 197.627 606.27 190.8C610.537 183.973 616.19 178.587 623.23 174.64C630.377 170.693 638.27 168.72 646.91 168.72C655.55 168.72 663.39 170.693 670.43 174.64C677.47 178.587 683.07 183.973 687.23 190.8C691.497 197.627 693.63 205.467 693.63 214.32C693.63 223.067 691.497 230.907 687.23 237.84C683.07 244.667 677.47 250.053 670.43 254C663.39 257.947 655.55 259.92 646.91 259.92ZM646.91 238.32C651.283 238.32 655.07 237.307 658.27 235.28C661.577 233.253 664.137 230.427 665.95 226.8C667.87 223.173 668.83 219.013 668.83 214.32C668.83 209.627 667.87 205.52 665.95 202C664.137 198.373 661.577 195.547 658.27 193.52C655.07 191.387 651.283 190.32 646.91 190.32C642.537 190.32 638.697 191.387 635.39 193.52C632.083 195.547 629.47 198.373 627.55 202C625.737 205.52 624.83 209.627 624.83 214.32C624.83 219.013 625.737 223.173 627.55 226.8C629.47 230.427 632.083 233.253 635.39 235.28C638.697 237.307 642.537 238.32 646.91 238.32ZM707.769 258V136.88H731.769V258H707.769ZM749.331 258V170.64H773.331V258H749.331ZM749.331 162.8V138.8H773.331V162.8H749.331Z" fill="#000350"/>
</svg>
