<svg width="206" height="206" viewBox="0 0 206 206" fill="none" xmlns="http://www.w3.org/2000/svg">
<path d="M193.856 38.6248V130.037C193.856 130.421 193.781 130.801 193.634 131.156C193.486 131.511 193.271 131.833 192.999 132.104C192.728 132.375 192.405 132.59 192.05 132.737C191.695 132.883 191.315 132.958 190.931 132.957H117.07C116.295 132.957 115.553 132.65 115.005 132.102C114.457 131.554 114.15 130.812 114.15 130.037V128.122C114.15 127.348 114.456 126.607 115.001 126.059C115.546 125.51 116.286 125.2 117.059 125.196C121.236 125.196 125.361 125.51 129.476 125.51C134.533 125.51 139.9 125.196 145.055 125.773C147.81 126.077 150.509 127.318 153.496 127.833C162.044 129.254 170.778 129.141 179.287 127.498C179.883 127.386 180.429 127.092 180.85 126.655C181.271 126.219 181.545 125.662 181.635 125.062C182.547 118.779 183.077 112.115 183.845 105.683C183.902 105.208 183.842 104.726 183.669 104.279C183.496 103.833 183.217 103.436 182.854 103.123C182.492 102.81 182.059 102.591 181.592 102.485C181.125 102.379 180.64 102.39 180.178 102.516C174.291 104.128 168.518 105.745 162.694 104.488C152.363 102.263 142.058 88.8682 148.129 75.504C149.353 73.0938 150.995 70.9209 152.981 69.0871C154.95 67.3531 157.196 65.9606 159.624 64.9671C165.928 62.5775 173.38 63.6023 179.194 65.8065C179.669 65.988 180.184 66.0421 180.686 65.9634C181.188 65.8846 181.661 65.6758 182.058 65.3577C182.455 65.0396 182.761 64.6232 182.947 64.15C183.133 63.6767 183.192 63.163 183.119 62.6599C182.181 56.164 181.259 49.6527 180.353 43.1259C180.261 42.5289 179.988 41.9746 179.571 41.5379C179.154 41.1013 178.612 40.8035 178.02 40.6848C170.753 39.1398 163.358 38.8308 156.045 40.3449C153.661 40.8599 151.467 41.8899 149.154 42.1371C146.229 42.441 143.098 42.271 140.204 42.3998C132.829 42.7242 125.191 43.162 117.137 43.3628C116.748 43.3718 116.361 43.3028 115.999 43.16C115.638 43.0172 115.308 42.8034 115.03 42.5313C114.752 42.2592 114.532 41.9342 114.382 41.5755C114.231 41.2168 114.154 40.8317 114.155 40.4428V36.4979C114.129 36.1271 114.114 35.7717 114.407 35.7254H190.936C191.707 35.7254 192.447 36.0302 192.994 36.5733C193.541 37.1165 193.851 37.854 193.856 38.6248Z" fill="black"/>
<path d="M129.224 115.509C129.997 116.384 130.826 117.208 131.706 117.976C131.849 118.108 131.949 118.279 131.994 118.468C132.039 118.657 132.026 118.855 131.957 119.036C131.889 119.218 131.767 119.375 131.609 119.487C131.45 119.599 131.262 119.661 131.067 119.665C125.696 119.815 120.448 120.088 115.169 120.34C115.037 120.348 114.904 120.328 114.78 120.283C114.655 120.237 114.541 120.167 114.444 120.076C114.348 119.985 114.271 119.875 114.219 119.753C114.166 119.631 114.139 119.499 114.139 119.367V111.513C114.139 111.376 114.168 111.241 114.224 111.116C114.28 110.991 114.362 110.879 114.464 110.788C114.566 110.697 114.686 110.629 114.817 110.588C114.947 110.547 115.085 110.534 115.221 110.55C118.929 110.977 122.395 109.829 125.124 110.895C126.891 111.58 128.034 114.129 129.213 115.53" fill="black"/>
<path d="M133.045 49.5789C131.953 52.1024 129.44 53.2199 127.823 55.213C127.681 55.3825 127.506 55.5212 127.308 55.6204C127.111 55.7196 126.895 55.7772 126.674 55.7898C123.183 55.9906 119.516 56.0215 115.793 56.0009C115.356 55.9982 114.938 55.8228 114.63 55.5131C114.322 55.2034 114.15 54.7844 114.15 54.3478V50.3308C114.151 50.1077 114.197 49.8871 114.285 49.6823C114.374 49.4774 114.503 49.2925 114.664 49.1387C114.826 48.9848 115.017 48.8651 115.226 48.7868C115.435 48.7084 115.657 48.6731 115.88 48.6828C121.942 48.9042 129.064 47.009 133.045 49.5789Z" fill="black"/>
<path d="M121.54 105.503H115.102C114.844 105.503 114.597 105.4 114.414 105.218C114.232 105.035 114.129 104.788 114.129 104.529V93.6577C114.129 93.3991 114.231 93.151 114.414 92.9676C114.596 92.7843 114.844 92.6806 115.102 92.6792H117.209C117.426 92.6781 117.637 92.7495 117.808 92.882C117.98 93.0145 118.102 93.2005 118.156 93.4105C119.186 97.5305 119.82 102.057 121.54 105.503Z" fill="black"/>
<path d="M122.055 63.4324C121.957 65.822 120.747 67.0992 119.995 68.8502C119.898 69.0859 119.739 69.291 119.535 69.4442C119.331 69.5973 119.09 69.6928 118.836 69.7206C117.806 69.8184 116.678 69.7927 115.633 69.8648C115.436 69.8812 115.238 69.8566 115.052 69.7926C114.865 69.7286 114.694 69.6266 114.549 69.493C114.403 69.3594 114.288 69.1972 114.208 69.0165C114.129 68.8358 114.088 68.6407 114.088 68.4434V63.0256C114.087 62.6521 114.232 62.2931 114.493 62.0262C114.754 61.7592 115.11 61.6058 115.484 61.599C118.316 61.5475 120.891 61.7638 122.014 63.4324" fill="black"/>
<path d="M115.257 76.7762H116.575C116.726 76.7766 116.876 76.8078 117.014 76.8679C117.153 76.9279 117.278 77.0155 117.381 77.1254C117.485 77.2352 117.565 77.365 117.617 77.5069C117.669 77.6487 117.691 77.7996 117.683 77.9504C117.544 80.3039 117.209 82.4514 117.204 84.9389C117.2 85.2005 117.103 85.4522 116.93 85.6487C116.758 85.8451 116.52 85.9733 116.261 86.0101C115.999 86.0513 115.746 86.1183 115.514 86.1749C115.352 86.2138 115.182 86.2153 115.019 86.1794C114.856 86.1435 114.703 86.071 114.571 85.9674C114.44 85.8638 114.334 85.7318 114.261 85.5814C114.188 85.4309 114.15 85.2658 114.15 85.0986V77.8886C114.149 77.7427 114.177 77.5982 114.232 77.4632C114.288 77.3283 114.369 77.2056 114.472 77.1023C114.575 76.9989 114.697 76.9169 114.832 76.8609C114.967 76.805 115.111 76.7762 115.257 76.7762Z" fill="black"/>
<path d="M105.209 75.7512C105.808 79.2825 106.222 82.8425 106.451 86.4168C106.455 86.4965 106.444 86.5764 106.418 86.6518C106.391 86.7271 106.35 86.7963 106.296 86.8554C106.242 86.9144 106.177 86.9621 106.105 86.9956C106.032 87.0291 105.954 87.0476 105.874 87.0503C97.5359 87.2666 82.57 87.9567 79.48 88.0803C79.3313 88.0868 79.1856 88.0376 79.0713 87.9424C78.957 87.8471 78.8823 87.7126 78.862 87.5653L78.7075 85.9533L78.0225 87.7043C77.982 87.8099 77.9119 87.9016 77.8205 87.9683C77.7291 88.035 77.6204 88.0739 77.5075 88.0803C74.6184 88.1987 56.1659 88.9609 46.144 89.3317C45.8886 89.3455 45.6347 89.2853 45.4127 89.1583C45.1908 89.0313 45.0101 88.843 44.8926 88.6159V88.5901C44.8331 88.4779 44.7391 88.3878 44.6246 88.333C44.51 88.2783 44.3809 88.2618 44.2562 88.2861C44.1316 88.3103 44.018 88.374 43.9323 88.4677C43.8466 88.5613 43.7932 88.6801 43.7802 88.8064C43.6772 89.8364 43.7802 90.9334 43.672 91.8964C42.4257 103.196 40.8653 116.287 39.6396 128.055C39.6197 128.197 39.5487 128.328 39.4399 128.423C39.331 128.518 39.1916 128.57 39.0473 128.57H10.3772C10.292 128.57 10.2076 128.553 10.1298 128.518C10.052 128.483 9.98263 128.432 9.9264 128.368C9.87018 128.304 9.82844 128.229 9.80404 128.147C9.77963 128.065 9.77314 127.979 9.785 127.895C14.8269 99.5699 19.3949 70.7299 24.4625 42.4513C24.4648 42.417 24.4648 42.3826 24.4625 42.3483V41.6273H50.0426C50.1769 41.626 50.3079 41.6692 50.4151 41.7503C50.5222 41.8314 50.5995 41.9457 50.6348 42.0753C50.9026 43.1053 51.4228 43.9242 51.6648 44.9748C51.6844 45.0625 51.6837 45.1536 51.6628 45.2411C51.642 45.3285 51.6015 45.4101 51.5444 45.4796C51.4873 45.5491 51.4152 45.6047 51.3334 45.6421C51.2517 45.6796 51.1625 45.6979 51.0726 45.6958C49.0538 45.6649 47.5448 46.1335 45.4076 45.9893C47.0092 46.5507 49.5945 46.1284 51.6648 46.2211L52.1798 46.6125C53.5755 50.2844 54.9969 53.9255 56.1608 57.824L55.6149 58.5965C52.0768 58.7871 48.6006 59.0446 44.8874 59.0703C48.7358 59.4784 52.6055 59.6504 56.4749 59.5853C56.598 59.5849 56.7183 59.6221 56.8196 59.6921C56.9208 59.7621 56.9983 59.8614 57.0414 59.9767C58.4165 63.6281 59.6164 67.4288 61.0739 71.0235C61.1507 71.2217 61.1813 71.4348 61.1632 71.6466C61.1452 71.8584 61.079 72.0633 60.9697 72.2456C60.8604 72.4279 60.7109 72.5829 60.5326 72.6986C60.3543 72.8144 60.1519 72.8879 59.9409 72.9135C59.2765 72.9959 58.5967 73.0629 57.9118 73.1195C57.7633 73.1375 57.627 73.2106 57.5298 73.3242C57.4326 73.4378 57.3815 73.5838 57.3867 73.7332C57.3919 73.8827 57.4529 74.0247 57.5578 74.1314C57.6626 74.238 57.8036 74.3014 57.953 74.3092C59.1529 74.3401 60.3323 74.3864 61.4859 74.4637C62.0009 74.3401 62.2275 74.4637 62.3665 74.7109C62.4171 74.8032 62.4916 74.8803 62.5822 74.934C62.6728 74.9877 62.7762 75.0161 62.8815 75.0161C62.9868 75.0161 63.0902 74.9877 63.1808 74.934C63.2714 74.8803 63.3459 74.8032 63.3965 74.7109C63.4648 74.6036 63.5657 74.5212 63.6844 74.4757C63.8031 74.4303 63.9333 74.4243 64.0557 74.4585C77.6466 75.0044 91.5773 75.2156 105.189 75.746" fill="black"/>
<path d="M103.675 61.1253C103.845 64.55 104.437 67.537 104.705 70.8742C91.2167 71.4356 77.7495 72.0175 64.5964 72.9342C63.8651 72.2132 64.787 71.003 65.1114 70.112C66.1002 67.3877 67.4495 63.6539 68.7164 60.8781C68.7164 60.5124 68.6701 60.1468 68.9791 60.1056C80.7056 60.2961 92.324 60.6206 103.711 61.1356" fill="black"/>
<path d="M101.893 47.5241C102.3 49.9807 102.639 52.5042 102.83 55.177L101.579 56.5418C91.4279 56.8456 81.4935 57.3555 71.6261 57.9323C71.4156 57.9443 71.2054 57.9045 71.0139 57.8163C70.8224 57.728 70.6555 57.5941 70.5278 57.4263C70.4002 57.2585 70.3157 57.0619 70.2818 56.8538C70.2479 56.6457 70.2657 56.4324 70.3335 56.2328C71.2821 53.2664 72.3963 50.3555 73.6707 47.5138L74.8861 46.7928C83.7286 47.2048 92.9832 47.1842 101.893 47.5241Z" fill="black"/>
<path d="M101.388 41.6273V43.1723C100.76 44.1508 99.3693 43.8779 98.2981 43.9397C90.7688 44.3517 82.4 44.4547 74.5463 44.7122C75.1643 43.6822 75.1849 42.1063 76.0913 41.375C84.4343 41.5449 93.4622 41.0299 101.393 41.6325" fill="black"/>
<path d="M76.8534 90.6399C74.9633 95.8826 72.8518 100.94 70.73 105.925L69.8082 106.605C64.3286 107.053 58.2104 106.862 52.6638 107.249L51.5514 106.502C49.8056 101.239 47.6735 96.3615 45.9173 91.1034C45.863 90.935 45.8497 90.7561 45.8788 90.5816C45.9078 90.407 45.9782 90.242 46.0841 90.1003C46.19 89.9586 46.3283 89.8443 46.4875 89.7671C46.6466 89.6898 46.822 89.6518 46.9988 89.6562C56.995 89.9343 67.022 90.2021 76.8688 90.645" fill="black"/>
<path d="M69.7053 108.587C68.1603 112.656 66.5535 116.642 64.9209 120.618L63.7261 121.416H58.092L56.8818 120.551C55.5737 116.869 54.0287 113.423 52.8442 109.612C52.7816 109.414 52.7681 109.203 52.8047 108.997C52.8414 108.792 52.9271 108.599 53.0545 108.434C53.182 108.269 53.3475 108.137 53.5368 108.05C53.7262 107.963 53.9338 107.923 54.142 107.933C59.2611 108.227 64.7149 108.165 69.7053 108.587Z" fill="black"/>
<path d="M64.0763 122.694C63.69 124.084 62.866 125.366 62.2892 126.814C61.9081 127.777 61.7742 128.997 61.2592 129.904L60.2653 129.775C59.5803 127.468 58.5503 125.506 57.886 123.183L58.4473 122.488C60.3374 122.555 61.9699 122.889 64.0814 122.73" fill="black"/>
<path d="M110.498 130.702L84.46 131.371C84.1254 131.379 83.7999 131.262 83.5468 131.043C83.2936 130.824 83.1309 130.519 83.0901 130.187L82.6935 124.831C82.6698 124.638 82.6879 124.442 82.7466 124.257C82.8053 124.071 82.9032 123.901 83.0336 123.757C83.1641 123.613 83.324 123.498 83.5026 123.421C83.6812 123.345 83.8742 123.307 84.0686 123.312L110.21 123.981C110.523 123.99 110.823 124.107 111.059 124.313C111.294 124.519 111.451 124.8 111.503 125.109L111.806 129.131C111.838 129.322 111.829 129.518 111.778 129.706C111.727 129.893 111.636 130.067 111.512 130.216C111.388 130.365 111.233 130.486 111.058 130.57C110.883 130.653 110.692 130.699 110.498 130.702Z" fill="black"/>
<path d="M108.634 120.366L84.0685 121.025C83.6344 121.036 83.2119 120.884 82.8854 120.597C82.5589 120.311 82.3525 119.912 82.3072 119.48L81.2772 110.514C81.2485 110.264 81.2745 110.011 81.3534 109.772C81.4324 109.534 81.5625 109.315 81.7345 109.132C81.9066 108.948 82.1165 108.805 82.3497 108.711C82.5829 108.617 82.8338 108.575 83.0849 108.588L107.702 109.886C108.101 109.906 108.481 110.064 108.776 110.334C109.071 110.604 109.263 110.968 109.319 111.364L110.323 118.388C110.359 118.632 110.343 118.881 110.275 119.118C110.206 119.354 110.088 119.574 109.928 119.761C109.768 119.949 109.57 120.099 109.347 120.204C109.123 120.308 108.88 120.363 108.634 120.366Z" fill="black"/>
<path d="M107.12 93.0191L108.763 103.448C108.804 103.708 108.789 103.975 108.719 104.229C108.649 104.483 108.526 104.72 108.357 104.922C108.188 105.125 107.978 105.29 107.741 105.405C107.504 105.52 107.245 105.583 106.981 105.59L82.6626 106.234C82.2077 106.244 81.765 106.087 81.4178 105.793C81.0706 105.499 80.843 105.088 80.7777 104.638L79.1039 92.9316C79.0664 92.6641 79.0877 92.3917 79.1661 92.1332C79.2446 91.8748 79.3784 91.6366 79.5583 91.4351C79.7382 91.2337 79.9598 91.0738 80.2078 90.9667C80.4557 90.8596 80.724 90.8078 80.994 90.8149L105.333 91.4535C105.766 91.4659 106.182 91.629 106.508 91.9148C106.834 92.2005 107.051 92.591 107.12 93.0191Z" fill="black"/>
<path d="M24.102 165.356V155.339L20.1674 162.797H18.54L14.626 155.339V165.356H11.639V150.102H14.8372L19.328 158.759L23.8651 150.102H27.0427V165.356H24.102Z" fill="black"/>
<path d="M35.5969 165.356V150.102H38.5581V165.356H35.5969Z" fill="black"/>
<path d="M46.1851 157.59C46.1888 155.671 46.8961 153.82 48.173 152.388C48.8672 151.611 49.7216 150.994 50.6774 150.579C51.6331 150.163 52.6675 149.96 53.7093 149.983C54.9847 149.949 56.2448 150.268 57.3503 150.905C58.3241 151.469 59.1117 152.305 59.6163 153.31L57.3606 154.881C57.1328 154.352 56.7792 153.887 56.3306 153.527C55.9317 153.207 55.4756 152.965 54.9865 152.816C54.537 152.681 54.0706 152.609 53.6011 152.605C52.9249 152.588 52.2554 152.742 51.6544 153.053C51.1161 153.344 50.6471 153.748 50.2794 154.237C49.9112 154.729 49.6323 155.282 49.4554 155.87C49.272 156.46 49.1783 157.075 49.1773 157.693C49.1748 158.348 49.2827 158.999 49.4966 159.619C49.7004 160.22 50.009 160.779 50.4081 161.272C50.7976 161.746 51.2817 162.134 51.8295 162.41C52.3917 162.693 53.0131 162.838 53.6423 162.833C54.1255 162.827 54.6049 162.747 55.0637 162.596C55.5575 162.43 56.0167 162.175 56.4182 161.844C56.8583 161.475 57.2103 161.012 57.4482 160.489L59.8532 161.906C59.5349 162.671 59.0197 163.34 58.3597 163.842C57.6767 164.372 56.9063 164.778 56.0834 165.042C55.2761 165.311 54.4314 165.45 53.5805 165.454C52.5505 165.475 51.5301 165.251 50.6038 164.8C49.7159 164.357 48.9233 163.745 48.2709 162.997C47.61 162.249 47.0869 161.389 46.7259 160.458C46.3661 159.545 46.1826 158.572 46.1851 157.59Z" fill="black"/>
<path d="M67.223 165.356V150.102H73.9901C74.6547 150.095 75.3121 150.241 75.911 150.529C76.4965 150.811 77.0213 151.205 77.456 151.688C77.8951 152.166 78.2441 152.719 78.486 153.321C78.72 153.909 78.8405 154.536 78.8414 155.17C78.8429 155.801 78.7295 156.428 78.5066 157.018C78.2912 157.591 77.9658 158.116 77.5487 158.563C77.1401 159.005 76.6436 159.355 76.0913 159.593L79.5727 165.33H76.3076L73.1661 160.217H70.2048V165.33L67.223 165.356ZM70.1894 157.631H73.9025C74.261 157.638 74.6105 157.519 74.8913 157.296C75.1897 157.059 75.4264 156.754 75.5814 156.406C75.7566 156.014 75.8444 155.588 75.8389 155.159C75.8461 154.718 75.7416 154.282 75.5351 153.892C75.3574 153.544 75.0997 153.242 74.7832 153.012C74.4988 152.8 74.1538 152.687 73.7995 152.687H70.1945L70.1894 157.631Z" fill="black"/>
<path d="M93.3077 165.464C92.261 165.475 91.2255 165.248 90.2795 164.8C89.387 164.382 88.5895 163.786 87.9363 163.049C87.2722 162.32 86.7484 161.475 86.3913 160.556C86.0424 159.649 85.8676 158.685 85.8763 157.713C85.8727 156.714 86.067 155.723 86.4479 154.799C86.8111 153.89 87.3344 153.055 87.9929 152.332C88.6617 151.606 89.4689 151.021 90.3671 150.612C91.3046 150.185 92.3241 149.969 93.3541 149.978C94.3993 149.965 95.4336 150.193 96.3771 150.643C97.2657 151.073 98.0576 151.679 98.7049 152.424C99.3444 153.162 99.8499 154.005 100.198 154.917C100.543 155.823 100.717 156.785 100.713 157.755C100.717 158.744 100.532 159.724 100.168 160.644C99.8082 161.555 99.2845 162.393 98.6225 163.116C97.9551 163.836 97.1517 164.417 96.2587 164.826C95.3317 165.246 94.3256 165.464 93.3077 165.464ZM88.8787 157.739C88.8782 158.388 88.9808 159.033 89.1826 159.65C89.3712 160.246 89.666 160.802 90.0529 161.293C90.442 161.786 90.9403 162.183 91.5087 162.451C92.0771 162.719 92.7 162.851 93.3283 162.838C93.9923 162.853 94.6495 162.701 95.239 162.395C95.7779 162.107 96.25 161.709 96.6243 161.226C97.0088 160.731 97.297 160.168 97.4741 159.567C97.6569 158.97 97.7506 158.349 97.7522 157.724C97.7548 157.077 97.6539 156.433 97.4535 155.818C97.2612 155.225 96.9628 154.672 96.5728 154.186C96.1928 153.712 95.7173 153.325 95.1772 153.048C94.5962 152.762 93.9552 152.618 93.3077 152.63C92.6545 152.618 92.0084 152.768 91.428 153.068C90.8853 153.352 90.4094 153.749 90.0323 154.232C89.647 154.718 89.3553 155.272 89.1723 155.865C88.977 156.467 88.878 157.096 88.8787 157.729V157.739Z" fill="black"/>
<path d="M118.017 157.59C118.015 155.67 118.723 153.817 120.005 152.388C120.699 151.612 121.552 150.995 122.507 150.58C123.462 150.165 124.495 149.961 125.536 149.983C126.812 149.949 128.072 150.268 129.177 150.905C130.152 151.467 130.94 152.304 131.443 153.31L129.188 154.881C128.96 154.352 128.606 153.887 128.158 153.527C127.759 153.207 127.303 152.965 126.814 152.816C126.364 152.681 125.898 152.609 125.428 152.605C124.754 152.589 124.086 152.743 123.487 153.053C122.948 153.344 122.479 153.748 122.112 154.237C121.742 154.729 121.461 155.281 121.282 155.87C121.099 156.46 121.005 157.075 121.004 157.693C121.004 158.348 121.112 158.999 121.324 159.619C121.527 160.221 121.838 160.781 122.24 161.272C122.627 161.747 123.109 162.135 123.657 162.41C124.221 162.693 124.844 162.838 125.475 162.833C125.956 162.827 126.434 162.747 126.891 162.596C127.385 162.43 127.844 162.175 128.245 161.844C128.685 161.475 129.037 161.012 129.275 160.489L131.68 161.906C131.362 162.671 130.847 163.34 130.187 163.842C129.504 164.373 128.734 164.779 127.91 165.042C127.103 165.311 126.258 165.45 125.408 165.454C124.375 165.467 123.355 165.234 122.431 164.774C121.543 164.332 120.75 163.719 120.098 162.972C119.437 162.223 118.914 161.364 118.553 160.433C118.198 159.527 118.016 158.563 118.017 157.59Z" fill="black"/>
<path d="M139.05 165.356V150.102H142.016V162.74H149.793V165.341L139.05 165.356Z" fill="black"/>
<path d="M163.008 165.464C161.945 165.493 160.889 165.284 159.918 164.852C159.101 164.469 158.393 163.888 157.858 163.162C157.325 162.43 156.936 161.603 156.709 160.726C156.461 159.798 156.338 158.84 156.344 157.878V150.102H159.284V157.878C159.282 158.495 159.351 159.111 159.49 159.712C159.612 160.275 159.823 160.816 160.113 161.313C160.383 161.78 160.772 162.166 161.241 162.431C161.782 162.721 162.389 162.863 163.003 162.843C163.627 162.867 164.247 162.721 164.795 162.421C165.26 162.146 165.648 161.758 165.923 161.293C166.219 160.798 166.43 160.256 166.546 159.691C166.678 159.096 166.744 158.488 166.742 157.878V150.102H169.687V157.878C169.693 158.868 169.563 159.854 169.301 160.809C169.064 161.687 168.662 162.512 168.117 163.24C167.574 163.944 166.866 164.504 166.057 164.872C165.095 165.288 164.055 165.49 163.008 165.464Z" fill="black"/>
<path d="M190.339 161.442C190.364 162.209 190.13 162.962 189.674 163.579C189.209 164.178 188.587 164.636 187.877 164.903C187.095 165.212 186.261 165.365 185.421 165.356H178.046V150.102H186.214C186.878 150.086 187.53 150.284 188.073 150.668C188.592 151.045 189.005 151.549 189.273 152.131C189.553 152.711 189.697 153.346 189.695 153.99C189.694 154.714 189.501 155.426 189.134 156.05C188.762 156.704 188.189 157.22 187.501 157.523C188.321 157.752 189.044 158.242 189.561 158.919C190.095 159.649 190.369 160.538 190.339 161.442ZM181.012 152.636V156.483H184.967C185.283 156.484 185.594 156.403 185.869 156.246C186.143 156.085 186.368 155.854 186.523 155.576C186.697 155.262 186.782 154.906 186.77 154.546C186.783 154.19 186.707 153.836 186.548 153.516C186.404 153.249 186.197 153.022 185.946 152.852C185.693 152.688 185.397 152.603 185.096 152.605L181.012 152.636ZM187.352 160.876C187.356 160.518 187.275 160.165 187.115 159.846C186.968 159.55 186.75 159.296 186.481 159.104C186.215 158.918 185.895 158.82 185.57 158.826H181.012V162.869H185.4C185.744 162.871 186.081 162.776 186.373 162.596C186.665 162.422 186.907 162.175 187.074 161.88C187.256 161.573 187.352 161.222 187.352 160.865V160.876Z" fill="black"/>
</svg>
